<?xml version="1.0" encoding="UTF-8" standalone="no"?>
<!-- Created with Inkscape (http://www.inkscape.org/) -->

<svg
   xmlns:dc="http://purl.org/dc/elements/1.1/"
   xmlns:cc="http://creativecommons.org/ns#"
   xmlns:rdf="http://www.w3.org/1999/02/22-rdf-syntax-ns#"
   xmlns:svg="http://www.w3.org/2000/svg"
   xmlns="http://www.w3.org/2000/svg"
   xmlns:xlink="http://www.w3.org/1999/xlink"
   xmlns:sodipodi="http://sodipodi.sourceforge.net/DTD/sodipodi-0.dtd"
   xmlns:inkscape="http://www.inkscape.org/namespaces/inkscape"
   width="186.26666mm"
   height="63.686481mm"
   viewBox="0 0 659.99999 225.66076"
   id="svg2"
   version="1.1"
   inkscape:version="0.91 r13725"
   sodipodi:docname="logo.svg">
  <defs
     id="defs4">
    <linearGradient
       inkscape:collect="always"
       id="linearGradient4152">
      <stop
         style="stop-color:#5b5b5b;stop-opacity:1"
         offset="0"
         id="stop4154" />
      <stop
         style="stop-color:#797979;stop-opacity:1"
         offset="1"
         id="stop4156" />
    </linearGradient>
    <linearGradient
       inkscape:collect="always"
       id="linearGradient4138">
      <stop
         style="stop-color:#eeeeee;stop-opacity:1"
         offset="0"
         id="stop4140" />
      <stop
         style="stop-color:#cccccc;stop-opacity:1"
         offset="1"
         id="stop4142" />
    </linearGradient>
    <radialGradient
       inkscape:collect="always"
       xlink:href="#linearGradient4138"
       id="radialGradient4144"
       cx="372.04724"
       cy="526.18109"
       fx="372.04724"
       fy="526.18109"
       r="321"
       gradientTransform="matrix(1,0,0,0.56386293,-1.8622929e-6,319.4871)"
       gradientUnits="userSpaceOnUse" />
    <linearGradient
       inkscape:collect="always"
       xlink:href="#linearGradient4152"
       id="linearGradient4158"
       x1="509.11688"
       y1="437.91464"
       x2="509.11688"
       y2="417.88489"
       gradientUnits="userSpaceOnUse"
       gradientTransform="translate(1.6411429,-0.82074898)" />
  </defs>
  <sodipodi:namedview
     id="base"
     pagecolor="#ffffff"
     bordercolor="#666666"
     borderopacity="1.0"
     inkscape:pageopacity="0.0"
     inkscape:pageshadow="2"
     inkscape:zoom="1.4"
     inkscape:cx="272.72377"
     inkscape:cy="119.47754"
     inkscape:document-units="px"
     inkscape:current-layer="layer1"
     showgrid="false"
     inkscape:window-width="1876"
     inkscape:window-height="1008"
     inkscape:window-x="20"
     inkscape:window-y="20"
     inkscape:window-maximized="0"
     fit-margin-top="0"
     fit-margin-left="0"
     fit-margin-right="0"
     fit-margin-bottom="0" />
  <metadata
     id="metadata7">
    <rdf:RDF>
      <cc:Work
         rdf:about="">
        <dc:format>image/svg+xml</dc:format>
        <dc:type
           rdf:resource="http://purl.org/dc/dcmitype/StillImage" />
        <dc:title></dc:title>
      </cc:Work>
    </rdf:RDF>
  </metadata>
  <g
     inkscape:label="Layer 1"
     inkscape:groupmode="layer"
     id="layer1"
     transform="translate(-42.047245,-417.16568)">
    <rect
       style="fill:url(#radialGradient4144);fill-opacity:1;stroke:#5b5b5b;stroke-width:2;stroke-linecap:round;stroke-linejoin:round;stroke-miterlimit:4;stroke-dasharray:none;stroke-opacity:1"
       id="rect4136"
       width="640"
       height="180"
       x="52.047245"
       y="436.18109" />
    <g
       style="font-style:normal;font-weight:normal;font-size:97.5px;line-height:125%;font-family:sans-serif;text-align:center;letter-spacing:0px;word-spacing:0px;text-anchor:middle;fill:#1e1e1e;fill-opacity:1;stroke:none;stroke-width:1px;stroke-linecap:butt;stroke-linejoin:miter;stroke-opacity:1"
       id="text4146">
      <path
         d="m 101.28003,488.0014 9.6167,0 0,62.98462 34.61059,0 0,8.09326 -44.22729,0 0,-71.07788 z"
         id="path4186"
         inkscape:connector-curvature="0" />
      <path
         d="m 168.40649,564.03046 q -3.71337,9.52148 -7.23632,12.42553 -3.52295,2.90406 -9.42627,2.90406 l -6.99829,0 0,-7.33155 5.1416,0 q 3.61816,0 5.61767,-1.71386 1.99951,-1.71387 4.42749,-8.09327 l 1.57105,-3.99902 -21.56616,-52.46338 9.28344,0 16.6626,41.7041 16.6626,-41.7041 9.28345,0 -23.42286,58.27149 z"
         id="path4188"
         inkscape:connector-curvature="0" />
      <path
         d="m 234.81885,513.94745 q -1.47583,-0.85693 -3.23731,-1.23779 -1.71386,-0.42847 -3.80859,-0.42847 -7.42676,0 -11.42578,4.85596 -3.95142,4.80835 -3.95142,13.85376 l 0,28.08837 -8.80737,0 0,-53.32031 8.80737,0 0,8.28369 q 2.76123,-4.85595 7.18872,-7.18872 4.42749,-2.38037 10.75928,-2.38037 0.90454,0 1.99951,0.14282 1.09497,0.0952 2.42798,0.33326 l 0.0476,8.9978 z"
         id="path4190"
         inkscape:connector-curvature="0" />
      <path
         d="m 244.10229,505.75897 8.75977,0 0,53.32031 -8.75977,0 0,-53.32031 z m 0,-20.75683 8.75977,0 0,11.09253 -8.75977,0 0,-11.09253 z"
         id="path4192"
         inkscape:connector-curvature="0" />
      <path
         d="m 309.51489,507.80609 0,8.18848 q -3.71338,-2.04712 -7.47436,-3.04688 -3.71338,-1.04736 -7.52198,-1.04736 -8.52172,0 -13.23486,5.42725 -4.71313,5.37963 -4.71313,15.13916 0,9.75952 4.71313,15.18676 4.71314,5.37964 13.23486,5.37964 3.8086,0 7.52198,-0.99975 3.76098,-1.04737 7.47436,-3.09449 l 0,8.09327 q -3.66577,1.71386 -7.61718,2.5708 -3.90381,0.85693 -8.3313,0.85693 -12.04468,0 -19.13819,-7.56958 -7.0935,-7.56958 -7.0935,-20.42358 0,-13.04444 7.14111,-20.5188 7.18872,-7.47437 19.66187,-7.47437 4.04663,0 7.90283,0.85694 3.8562,0.80932 7.47436,2.47558 z"
         id="path4194"
         inkscape:connector-curvature="0" />
      <path
         d="m 367.83398,490.33417 0,9.37866 q -5.47485,-2.61841 -10.33081,-3.90381 -4.85595,-1.2854 -9.37866,-1.2854 -7.85522,0 -12.13989,3.04688 -4.23706,3.04687 -4.23706,8.66455 0,4.71313 2.80884,7.14111 2.85644,2.38037 10.75927,3.8562 l 5.80811,1.19019 q 10.75928,2.04712 15.85327,7.23632 5.1416,5.14161 5.1416,13.80616 0,10.33081 -6.95068,15.66284 -6.90308,5.33203 -20.28076,5.33203 -5.04639,0 -10.75928,-1.14258 -5.66528,-1.14258 -11.75903,-3.38013 l 0,-9.90234 q 5.85571,3.28491 11.47339,4.95117 5.61767,1.66626 11.04492,1.66626 8.23608,0 12.71118,-3.2373 4.4751,-3.23731 4.4751,-9.23584 0,-5.23682 -3.23731,-8.18848 -3.1897,-2.95166 -10.52124,-4.42749 l -5.85571,-1.14258 q -10.75928,-2.14233 -15.56763,-6.71264 -4.80835,-4.57032 -4.80835,-12.71118 0,-9.42627 6.61743,-14.85352 6.66504,-5.42725 18.32886,-5.42725 4.99878,0 10.18799,0.90454 5.18921,0.90455 10.61645,2.71363 z"
         id="path4196"
         inkscape:connector-curvature="0" />
      <path
         d="m 425.10571,507.80609 0,8.18848 q -3.71338,-2.04712 -7.47436,-3.04688 -3.71338,-1.04736 -7.52198,-1.04736 -8.52172,0 -13.23486,5.42725 -4.71313,5.37963 -4.71313,15.13916 0,9.75952 4.71313,15.18676 4.71314,5.37964 13.23486,5.37964 3.8086,0 7.52198,-0.99975 3.76098,-1.04737 7.47436,-3.09449 l 0,8.09327 q -3.66577,1.71386 -7.61718,2.5708 -3.90381,0.85693 -8.3313,0.85693 -12.04468,0 -19.13819,-7.56958 -7.0935,-7.56958 -7.0935,-20.42358 0,-13.04444 7.14111,-20.5188 7.18872,-7.47437 19.66187,-7.47437 4.04663,0 7.90283,0.85694 3.8562,0.80932 7.47436,2.47558 z"
         id="path4198"
         inkscape:connector-curvature="0" />
      <path
         d="m 471.33252,513.94745 q -1.47583,-0.85693 -3.23731,-1.23779 -1.71386,-0.42847 -3.80859,-0.42847 -7.42676,0 -11.42578,4.85596 -3.95142,4.80835 -3.95142,13.85376 l 0,28.08837 -8.80737,0 0,-53.32031 8.80737,0 0,8.28369 q 2.76123,-4.85595 7.18872,-7.18872 4.42749,-2.38037 10.75928,-2.38037 0.90454,0 1.99951,0.14282 1.09497,0.0952 2.42798,0.33326 l 0.0476,8.9978 z"
         id="path4200"
         inkscape:connector-curvature="0" />
      <path
         d="m 524.12915,530.22919 0,4.28466 -40.27588,0 q 0.57129,9.04542 5.42725,13.80616 4.90356,4.71313 13.61572,4.71313 5.04639,0 9.75952,-1.23779 4.76074,-1.23779 9.42627,-3.71338 l 0,8.28369 q -4.71313,1.99951 -9.66431,3.04688 -4.95117,1.04736 -10.04516,1.04736 -12.75879,0 -20.23316,-7.42676 -7.42675,-7.42676 -7.42675,-20.09033 0,-13.09204 7.04589,-20.75684 7.09351,-7.7124 19.09058,-7.7124 10.75928,0 16.99585,6.95069 6.28418,6.90307 6.28418,18.80493 z m -8.75977,-2.5708 q -0.0952,-7.18872 -4.04663,-11.47339 -3.9038,-4.28467 -10.37841,-4.28467 -7.33155,0 -11.75904,4.14185 -4.37988,4.14184 -5.04638,11.66381 l 31.23046,-0.0476 z"
         id="path4202"
         inkscape:connector-curvature="0" />
      <path
         d="m 584.1145,530.22919 0,4.28466 -40.27588,0 q 0.57129,9.04542 5.42725,13.80616 4.90356,4.71313 13.61572,4.71313 5.04639,0 9.75952,-1.23779 4.76075,-1.23779 9.42627,-3.71338 l 0,8.28369 q -4.71313,1.99951 -9.6643,3.04688 -4.95118,1.04736 -10.04517,1.04736 -12.75879,0 -20.23315,-7.42676 -7.42676,-7.42676 -7.42676,-20.09033 0,-13.09204 7.0459,-20.75684 7.0935,-7.7124 19.09057,-7.7124 10.75928,0 16.99585,6.95069 6.28418,6.90307 6.28418,18.80493 z m -8.75976,-2.5708 q -0.0952,-7.18872 -4.04663,-11.47339 -3.90381,-4.28467 -10.37842,-4.28467 -7.33155,0 -11.75904,4.14185 -4.37988,4.14184 -5.04638,11.66381 l 31.23047,-0.0476 z"
         id="path4204"
         inkscape:connector-curvature="0" />
      <path
         d="m 642.81445,526.89667 0,32.18261 -8.75976,0 0,-31.89697 q 0,-7.56958 -2.95166,-11.33056 -2.95166,-3.76099 -8.85498,-3.76099 -7.09351,0 -11.18775,4.5227 -4.09424,4.52271 -4.09424,12.33033 l 0,30.13549 -8.80737,0 0,-53.32031 8.80737,0 0,8.28369 q 3.14209,-4.80835 7.37915,-7.18872 4.28467,-2.38037 9.85474,-2.38037 9.18823,0 13.90137,5.71289 4.71313,5.66529 4.71313,16.71021 z"
         id="path4206"
         inkscape:connector-curvature="0" />
    </g>
    <rect
       style="fill:url(#linearGradient4158);fill-opacity:1;stroke:none;stroke-width:2;stroke-linecap:round;stroke-linejoin:round;stroke-miterlimit:4;stroke-dasharray:none;stroke-opacity:1"
       id="rect4150"
       width="660"
       height="20"
       x="42.047245"
       y="417.16568"
       ry="10" />
    <rect
       style="fill:#5b5b5b;fill-opacity:1;stroke:none;stroke-width:2;stroke-linecap:round;stroke-linejoin:round;stroke-miterlimit:4;stroke-dasharray:none;stroke-opacity:1"
       id="rect4160"
       width="2"
       height="20"
       x="371.04724"
       y="617.06177" />
    <circle
       style="fill:none;fill-opacity:1;stroke:#5b5b5b;stroke-width:2;stroke-linecap:round;stroke-linejoin:round;stroke-miterlimit:4;stroke-dasharray:none;stroke-opacity:1"
       id="path4164"
       cx="372.04724"
       cy="639.2818"
       r="2.5446429" />
  </g>
</svg>
